<svg width="33" height="33" viewBox="0 0 33 33" fill="none" xmlns="http://www.w3.org/2000/svg">
<path d="M27.1613 15.0107H17.1613V5.01074C17.1613 4.74553 17.0559 4.49117 16.8684 4.30364C16.6808 4.1161 16.4265 4.01074 16.1613 4.01074C15.896 4.01074 15.6417 4.1161 15.4541 4.30364C15.2666 4.49117 15.1613 4.74553 15.1613 5.01074V15.0107H5.16125C4.89604 15.0107 4.64168 15.1161 4.45415 15.3036C4.26661 15.4912 4.16125 15.7455 4.16125 16.0107C4.16125 16.276 4.26661 16.5303 4.45415 16.7178C4.64168 16.9054 4.89604 17.0107 5.16125 17.0107H15.1613V27.0107C15.1613 27.276 15.2666 27.5303 15.4541 27.7178C15.6417 27.9054 15.896 28.0107 16.1613 28.0107C16.4265 28.0107 16.6808 27.9054 16.8684 27.7178C17.0559 27.5303 17.1613 27.276 17.1613 27.0107V17.0107H27.1613C27.4265 17.0107 27.6808 16.9054 27.8684 16.7178C28.0559 16.5303 28.1613 16.276 28.1613 16.0107C28.1613 15.7455 28.0559 15.4912 27.8684 15.3036C27.6808 15.1161 27.4265 15.0107 27.1613 15.0107Z" fill="currentColor"/>
</svg>
