<svg width="32" height="32" viewBox="0 0 32 32" fill="none" xmlns="http://www.w3.org/2000/svg">
<path d="M6.7375 4.32502C6.55683 4.13601 6.30933 4.02528 6.048 4.01655C5.78668 4.00782 5.53234 4.10179 5.33946 4.27832C5.14658 4.45485 5.03052 4.6999 5.01613 4.96097C5.00175 5.22205 5.09019 5.47837 5.2625 5.67502L9.2 10H4C3.46957 10 2.96086 10.2107 2.58579 10.5858C2.21071 10.9609 2 11.4696 2 12V20C2 20.5305 2.21071 21.0392 2.58579 21.4142C2.96086 21.7893 3.46957 22 4 22H9.6625L18.3875 28.7875C18.5619 28.9253 18.7777 29.0001 19 29C19.1513 28.9982 19.3005 28.9641 19.4375 28.9C19.6063 28.8179 19.7485 28.69 19.848 28.5308C19.9475 28.3716 20.0001 28.1877 20 28V21.8875L25.2625 27.675C25.3562 27.7774 25.4701 27.8592 25.5971 27.9151C25.724 27.9711 25.8613 28 26 28C26.2494 27.9976 26.4894 27.9042 26.675 27.7375C26.7733 27.6498 26.853 27.5433 26.9095 27.4242C26.966 27.3052 26.9981 27.1761 27.004 27.0444C27.0098 26.9128 26.9892 26.7814 26.9435 26.6578C26.8977 26.5342 26.8277 26.4211 26.7375 26.325L6.7375 4.32502ZM9 20H4V12H9V20Z" fill="currentColor"/>
<path d="M18.2625 14.025C18.3557 14.1279 18.4695 14.2101 18.5966 14.2661C18.7237 14.3221 18.8612 14.3507 19 14.35C19.1238 14.3536 19.2471 14.3324 19.3625 14.2875C19.5512 14.2141 19.7131 14.0852 19.827 13.9178C19.9408 13.7504 20.0011 13.5524 20 13.35V3.99996C19.9995 3.81317 19.9466 3.63026 19.8474 3.47197C19.7483 3.31368 19.6067 3.18634 19.4389 3.10436C19.271 3.02239 19.0836 2.98907 18.8978 3.00817C18.7119 3.02728 18.5352 3.09805 18.3875 3.21246L13.4 7.08746C13.2941 7.17333 13.2064 7.27947 13.142 7.39967C13.0776 7.51987 13.0378 7.65171 13.025 7.78746C13.0125 7.92489 13.0283 8.06341 13.0713 8.19454C13.1143 8.32566 13.1836 8.44661 13.275 8.54996L18.2625 14.025Z" fill="currentColor"/>
<path d="M28.0626 8.92497C27.8751 8.73796 27.6211 8.63293 27.3563 8.63293C27.0915 8.63293 26.8375 8.73796 26.6501 8.92497C26.4623 9.11457 26.3569 9.37062 26.3569 9.63747C26.3569 9.90432 26.4623 10.1604 26.6501 10.35C27.3942 11.092 27.9847 11.9735 28.3875 12.9442C28.7904 13.9148 28.9978 14.9553 28.9978 16.0062C28.9978 17.0571 28.7904 18.0977 28.3875 19.0683C27.9847 20.0389 27.3942 20.9205 26.6501 21.6625C26.463 21.8499 26.358 22.1039 26.358 22.3687C26.358 22.6335 26.463 22.8875 26.6501 23.075C26.842 23.2585 27.097 23.3613 27.3626 23.3625C27.6245 23.362 27.8759 23.2588 28.0626 23.075C28.9938 22.1471 29.7327 21.0445 30.2369 19.8304C30.7411 18.6163 31.0006 17.3146 31.0006 16C31.0006 14.6854 30.7411 13.3837 30.2369 12.1696C29.7327 10.9555 28.9938 9.85286 28.0626 8.92497Z" fill="currentColor"/>
<path d="M24 16.0001C24.0007 16.3955 23.9226 16.7871 23.7702 17.1519C23.6178 17.5168 23.3942 17.8476 23.1125 18.1251C22.9747 18.2656 22.8815 18.4437 22.8445 18.6369C22.8074 18.8302 22.8283 19.0301 22.9043 19.2116C22.9804 19.3931 23.1083 19.5481 23.2721 19.6572C23.4359 19.7664 23.6282 19.8247 23.825 19.8251C23.957 19.8279 24.0883 19.8039 24.2107 19.7544C24.3332 19.705 24.4444 19.6312 24.5375 19.5376C25.4733 18.5981 25.9987 17.3261 25.9987 16.0001C25.9987 14.674 25.4733 13.402 24.5375 12.4626C24.3479 12.2748 24.0918 12.1694 23.825 12.1694C23.5581 12.1694 23.3021 12.2748 23.1125 12.4626C22.9255 12.65 22.8204 12.904 22.8204 13.1688C22.8204 13.4336 22.9255 13.6876 23.1125 13.8751C23.3942 14.1525 23.6178 14.4833 23.7702 14.8482C23.9226 15.2131 24.0007 15.6047 24 16.0001Z" fill="currentColor"/>
</svg>
