<svg width="33" height="33" viewBox="0 0 33 33" fill="none" xmlns="http://www.w3.org/2000/svg">
<path d="M29.1486 10.0232C28.8648 9.70706 28.518 9.45368 28.1306 9.27932C27.7431 9.10496 27.3235 9.01348 26.8986 9.01074H20.1611V7.01074C20.1578 5.68567 19.63 4.41582 18.693 3.47885C17.7561 2.54189 16.4862 2.01404 15.1611 2.01074C14.9754 2.01225 14.7935 2.06422 14.635 2.16109C14.4764 2.25797 14.3472 2.39611 14.2611 2.56074L9.53613 12.0107H4.16113C3.6307 12.0107 3.12199 12.2215 2.74692 12.5965C2.37185 12.9716 2.16113 13.4803 2.16113 14.0107V25.0107C2.16113 25.5412 2.37185 26.0499 2.74692 26.425C3.12199 26.8 3.6307 27.0107 4.16113 27.0107H25.3986C26.1283 27.0077 26.8321 26.7399 27.3793 26.2572C27.9265 25.7744 28.2798 25.1094 28.3736 24.3857L29.8736 12.3857C29.9235 11.9632 29.8848 11.5349 29.76 11.1281C29.6352 10.7214 29.427 10.3451 29.1486 10.0232ZM4.16113 14.0107H9.16113V25.0107H4.16113V14.0107Z" fill="currentColor"/>
</svg>
